<?xml version="1.0" encoding="UTF-8"?>
<svg id="Capa_2" data-name="Capa 2" xmlns="http://www.w3.org/2000/svg" viewBox="0 0 169.25 44.11">
  <defs>
    <style>
      .cls-1 {
        fill: #0ca9a9;
      }

      .cls-1, .cls-2 {
        stroke-width: 0px;
      }
    </style>
  </defs>
  <g id="Capa_1-2" data-name="Capa 1">
    <g>
      <g>
        <path class="cls-2" d="M38.2,24.95c0,.82-.23,1.51-.68,2.08-.46.57-1.01.86-1.66.86s-1.2-.28-1.66-.86c-.46-.57-.68-1.26-.68-2.08v-1.41c-.03-1.22-.26-2.23-.68-3.03-.42-.79-.93-1.42-1.51-1.86-.59-.45-1.22-.75-1.9-.92-.68-.16-1.3-.24-1.85-.24H10.64c-1.01,0-2.02-.16-3.05-.49-1.02-.33-1.99-.82-2.9-1.47v9.42c0,.82-.23,1.51-.68,2.08-.46.57-1.01.86-1.66.86s-1.2-.28-1.66-.86c-.46-.57-.68-1.26-.68-2.08V4.16c0-.82.23-1.51.68-2.08.46-.57,1.01-.86,1.66-.86s1.2.29,1.66.86c.46.57.68,1.26.68,2.08v1.04c0,1.31.2,2.38.61,3.21.41.84.91,1.49,1.51,1.96.6.47,1.24.8,1.93.98s1.32.28,1.9.28h16.93c1.01,0,2.02.16,3.05.49,1.02.33,1.99.82,2.9,1.47V4.16c0-.82.23-1.51.68-2.08.46-.57,1.01-.86,1.66-.86s1.2.29,1.66.86c.46.57.68,1.26.68,2.08v20.79Z"/>
        <path class="cls-2" d="M47.28,26.78c-.49.73-1.09,1.1-1.81,1.1-.65,0-1.2-.28-1.66-.86-.46-.57-.68-1.26-.68-2.08,0-.73.16-1.32.49-1.77L55.47,3.18c.55-.94,1.28-1.7,2.2-2.29.91-.59,1.89-.89,2.93-.89.98,0,1.9.27,2.78.79.88.53,1.59,1.26,2.15,2.2l11.86,19.87c.2.29.36.6.49.95.13.35.2.72.2,1.13,0,.82-.23,1.51-.68,2.08-.46.57-1.01.86-1.66.86-.78,0-1.4-.39-1.85-1.16l-11.37-19.02c-.23-.33-.51-.68-.85-1.07-.34-.39-.69-.58-1.05-.58s-.71.19-1.05.58c-.34.39-.61.74-.81,1.07l-11.47,19.08ZM57.57,21.28c0-1.06.29-1.96.88-2.69.59-.73,1.3-1.1,2.15-1.1s1.56.37,2.15,1.1c.59.73.88,1.63.88,2.69s-.29,1.96-.88,2.69c-.59.73-1.3,1.1-2.15,1.1s-1.56-.37-2.15-1.1c-.59-.73-.88-1.63-.88-2.69Z"/>
        <path class="cls-2" d="M82.41,2.08c.46-.57,1.01-.86,1.66-.86s1.2.29,1.66.86c.46.57.68,1.26.68,2.08v10.39c0,.73.07,1.54.22,2.42.15.88.42,1.68.83,2.42.41.73.96,1.36,1.66,1.86.7.51,1.62.76,2.76.76h11.32c-.52-1.14-.91-2.35-1.17-3.64-.26-1.28-.39-2.56-.39-3.82V4.16c0-.82.23-1.51.68-2.08.46-.57,1.01-.86,1.66-.86s1.2.29,1.66.86c.46.57.68,1.26.68,2.08v10.39c0,.73.07,1.53.22,2.38s.41,1.66.78,2.42c.37.75.89,1.39,1.56,1.9.67.51,1.52.76,2.56.76h4.63c1.11,0,2.02-.25,2.73-.76.72-.51,1.28-1.13,1.68-1.86.41-.73.68-1.54.83-2.42.15-.88.22-1.68.22-2.42V4.16c0-.82.23-1.51.68-2.08.46-.57,1.01-.86,1.66-.86s1.2.29,1.66.86c.46.57.68,1.26.68,2.08v10.39c0,1.55-.2,3.11-.61,4.68-.41,1.57-1,3-1.78,4.28-.78,1.28-1.72,2.33-2.83,3.15-1.11.82-2.36,1.22-3.76,1.22h-27.03c-1.33,0-2.52-.41-3.56-1.22-1.04-.82-1.93-1.86-2.66-3.15-.73-1.28-1.29-2.72-1.68-4.31-.39-1.59-.59-3.14-.59-4.65V4.16c0-.82.23-1.51.68-2.08Z"/>
        <path class="cls-2" d="M135.73,11.62h11.27c1.69,0,3.35-.28,4.98-.83,1.63-.55,3.21-1.27,4.76-2.17,1.54-.9,3.02-1.92,4.44-3.06,1.42-1.14,2.77-2.3,4.07-3.49.55-.57,1.11-.86,1.66-.86.65,0,1.2.29,1.66.86.45.57.68,1.26.68,2.08,0,.57-.13,1.07-.39,1.5-.26.43-.57.81-.93,1.13-.85.82-1.66,1.58-2.44,2.29-.78.71-1.56,1.38-2.34,1.99-.78.61-1.59,1.2-2.42,1.77-.83.57-1.72,1.14-2.66,1.71.94.57,1.83,1.14,2.66,1.71.83.57,1.63,1.16,2.42,1.77.78.61,1.56,1.27,2.34,1.99.78.71,1.59,1.48,2.44,2.29.36.33.67.7.93,1.13.26.43.39.93.39,1.5,0,.82-.23,1.51-.68,2.08-.46.57-1.01.86-1.66.86-.55,0-1.11-.28-1.66-.86-1.33-1.22-2.71-2.4-4.12-3.55-1.42-1.14-2.89-2.16-4.42-3.06-1.53-.9-3.11-1.61-4.73-2.14-1.63-.53-3.29-.79-4.98-.79h-11.27v7.46c0,.82-.23,1.51-.68,2.08-.46.57-.99.86-1.61.86-.65,0-1.2-.28-1.66-.86-.46-.57-.68-1.26-.68-2.08V4.16c0-.82.23-1.51.68-2.08.46-.57.99-.86,1.61-.86.65,0,1.2.29,1.66.86.46.57.68,1.26.68,2.08v7.46Z"/>
      </g>
      <g>
        <path class="cls-1" d="M129.76,37.38c-.06-.37-.18-.72-.35-1.03-.17-.31-.41-.58-.72-.8-.31-.22-.7-.33-1.17-.33h-7.53c-.49,0-.88.11-1.18.33-.3.22-.54.48-.71.8-.17.31-.29.66-.35,1.03-.06.37-.09.72-.09,1.03v4.44c0,.35-.1.64-.29.89-.19.24-.43.37-.71.37s-.51-.12-.71-.37c-.19-.24-.29-.54-.29-.89v-4.44c0-.66.09-1.33.26-2,.17-.67.43-1.28.76-1.83.33-.55.74-1,1.21-1.35.47-.35,1.01-.52,1.61-.52h8.73c.57.04,1.08.23,1.52.59.44.36.82.81,1.14,1.35.31.54.55,1.14.72,1.8.17.66.25,1.32.25,1.96v4.44c0,.35-.1.64-.29.89-.19.24-.43.37-.71.37s-.51-.12-.71-.37c-.19-.24-.29-.54-.29-.89v-4.44c0-.31-.03-.66-.09-1.03Z"/>
        <path class="cls-1" d="M138.23,35.22c-.49,0-.88.11-1.18.33-.3.22-.54.48-.71.8-.17.31-.29.66-.35,1.03-.06.37-.09.72-.09,1.03s.03.66.09,1.03c.06.37.18.72.35,1.03.17.31.41.58.71.8.3.22.69.33,1.18.33h11.49c.28,0,.51.12.71.37.19.24.29.54.29.89s-.1.64-.29.89c-.19.24-.43.37-.71.37h-12.15c-.57,0-1.08-.17-1.52-.52-.44-.35-.82-.8-1.14-1.35-.31-.55-.55-1.16-.72-1.84-.17-.68-.25-1.34-.25-1.99s.09-1.33.26-2c.17-.67.43-1.28.76-1.83.33-.55.74-1,1.21-1.35.47-.35,1.01-.52,1.61-.52h11.94c.28,0,.51.12.71.37.19.24.29.54.29.89s-.1.64-.29.89c-.19.24-.43.37-.71.37h-11.49ZM149.55,37.52c.19.24.29.54.29.89s-.1.64-.29.89c-.19.24-.43.37-.71.37h-10.38c-.28,0-.51-.12-.71-.37-.19-.24-.29-.54-.29-.89s.1-.64.29-.89c.19-.24.43-.37.71-.37h10.38c.28,0,.51.12.71.37Z"/>
        <path class="cls-1" d="M169.25,38.41c0,.66-.09,1.33-.26,2-.17.67-.43,1.28-.76,1.83s-.74,1-1.21,1.35c-.47.35-1.01.52-1.61.52h-9.51c-.57-.03-1.08-.23-1.52-.59-.44-.36-.82-.81-1.14-1.35-.31-.54-.55-1.14-.72-1.8-.17-.66-.25-1.31-.25-1.96s.09-1.33.26-2c.17-.67.43-1.28.76-1.83.33-.55.74-1,1.21-1.35.47-.35,1.01-.52,1.61-.52h9.51c.57.04,1.08.23,1.52.59.44.36.82.81,1.14,1.35.31.54.55,1.14.72,1.8.17.66.25,1.32.25,1.96ZM166.15,41.27c.31-.22.55-.48.72-.8.17-.31.29-.66.35-1.03.06-.37.09-.72.09-1.03s-.03-.66-.09-1.03c-.06-.37-.18-.72-.35-1.03-.17-.31-.41-.58-.72-.8-.31-.22-.7-.33-1.17-.33h-8.42c-.49,0-.88.11-1.18.33-.3.22-.54.48-.71.8-.17.31-.29.66-.35,1.03-.06.37-.09.72-.09,1.03s.03.66.09,1.03c.06.37.18.72.35,1.03.17.31.41.58.71.8.3.22.69.33,1.18.33h8.42c.47,0,.86-.11,1.17-.33Z"/>
      </g>
    </g>
  </g>
</svg>