<?xml version="1.0" encoding="UTF-8"?>
<svg id="Capa_2" data-name="Capa 2" xmlns="http://www.w3.org/2000/svg" viewBox="0 0 487.85 500">
  <defs>
    <style>
      .cls-1 {
        fill: #0ca9a9;
      }

      .cls-1, .cls-2 {
        stroke-width: 0px;
      }
    </style>
  </defs>
  <g id="Capa_1-2" data-name="Capa 1">
    <path class="cls-2" d="M321.97,0c-5.85,0-10.81,5.36-14.89,16.06-4.09,10.72-6.13,23.71-6.13,38.99v176.61c-8.18-12.22-16.87-21.39-26.06-27.52-9.2-6.11-18.33-9.17-27.38-9.17H95.5c-5.26,0-10.95-1.72-17.08-5.16-6.13-3.44-11.9-9.55-17.3-18.35-5.41-8.78-9.93-21.02-13.58-36.7-3.66-15.66-5.48-35.73-5.48-60.21v-19.5c0-15.28-2.05-28.28-6.13-38.99C31.83,5.36,26.87,0,21.03,0S10.22,5.36,6.13,16.06C2.04,26.77,0,39.76,0,55.05v389.91c0,15.3,2.04,28.29,6.13,38.99,4.09,10.72,9.05,16.05,14.89,16.05s10.8-5.34,14.89-16.05c4.09-10.7,6.13-23.69,6.13-38.99v-176.61c8.17,12.24,16.87,21.41,26.06,27.52,9.2,6.13,18.32,9.17,27.38,9.17h152.01c4.96,0,10.51,1.54,16.65,4.59,6.13,3.06,11.83,8.8,17.08,17.2,5.26,8.42,9.78,20.07,13.58,34.98,3.79,14.91,5.84,33.83,6.13,56.77v26.38c0,15.3,2.04,28.29,6.13,38.99,4.09,10.72,9.05,16.05,14.89,16.05s10.8-5.34,14.89-16.05c4.09-10.7,6.13-23.69,6.13-38.99V55.05c0-15.28-2.05-28.28-6.13-38.99C332.78,5.36,327.81,0,321.97,0Z"/>
    <g>
      <path class="cls-1" d="M413.53,368.44c-4.14.58-7.94,1.69-11.4,3.31-3.46,1.62-6.39,3.86-8.8,6.71-2.4,2.85-3.61,6.49-3.61,10.89v70.21c0,4.54,1.2,8.2,3.61,10.99,2.41,2.79,5.34,4.99,8.8,6.61,3.46,1.62,7.27,2.72,11.4,3.31,4.14.58,7.94.88,11.4.88h49.07c3.85,0,7.12.91,9.81,2.72,2.7,1.82,4.04,4.02,4.04,6.61s-1.34,4.8-4.04,6.61c-2.69,1.82-5.96,2.72-9.81,2.72h-49.07c-7.31,0-14.67-.81-22.08-2.43-7.41-1.62-14.14-3.99-20.21-7.1-6.06-3.11-11.01-6.87-14.86-11.28-3.85-4.41-5.77-9.4-5.77-14.97v-81.49c.39-5.31,2.55-10.05,6.49-14.2,3.95-4.15,8.9-7.68,14.87-10.6,5.97-2.92,12.61-5.15,19.92-6.71,7.32-1.56,14.53-2.33,21.65-2.33h49.07c3.85,0,7.12.91,9.81,2.72,2.7,1.82,4.04,4.02,4.04,6.61s-1.34,4.8-4.04,6.61c-2.69,1.82-5.96,2.72-9.81,2.72h-49.07c-3.46,0-7.26.29-11.4.88Z"/>
      <path class="cls-1" d="M389.71,289.38c0,4.54,1.2,8.2,3.61,10.99,2.41,2.79,5.34,4.99,8.8,6.61,3.46,1.62,7.27,2.72,11.4,3.31,4.14.58,7.94.88,11.4.88s7.27-.29,11.4-.88c4.14-.58,7.94-1.68,11.4-3.31,3.46-1.62,6.4-3.82,8.8-6.61,2.41-2.79,3.61-6.45,3.61-10.99v-107.16c0-2.59,1.35-4.8,4.04-6.61,2.7-1.81,5.97-2.72,9.81-2.72s7.12.91,9.81,2.72c2.7,1.82,4.04,4.02,4.04,6.61v113.38c0,5.32-1.92,10.05-5.77,14.2-3.85,4.15-8.8,7.68-14.87,10.6-6.06,2.92-12.84,5.15-20.35,6.71-7.5,1.56-14.82,2.33-21.94,2.33s-14.67-.81-22.08-2.43c-7.41-1.62-14.14-3.99-20.21-7.1-6.06-3.11-11.01-6.87-14.86-11.28-3.85-4.41-5.77-9.4-5.77-14.97v-111.44c0-2.59,1.35-4.8,4.04-6.61,2.7-1.81,5.97-2.72,9.81-2.72s7.12.91,9.81,2.72c2.7,1.82,4.04,4.02,4.04,6.61v107.16ZM415.11,183.78c2.7-1.81,5.97-2.72,9.81-2.72s7.12.91,9.81,2.72c2.7,1.82,4.04,4.02,4.04,6.61v96.85c0,2.6-1.34,4.8-4.04,6.61-2.69,1.82-5.96,2.72-9.81,2.72s-7.12-.91-9.81-2.72c-2.69-1.81-4.04-4.02-4.04-6.61v-96.85c0-2.59,1.35-4.8,4.04-6.61Z"/>
      <path class="cls-1" d="M424.93,0c7.31,0,14.68.81,22.08,2.43,7.41,1.62,14.14,3.99,20.21,7.1,6.06,3.11,11.02,6.87,14.87,11.28,3.85,4.41,5.77,9.4,5.77,14.97v88.68c-.38,5.32-2.55,10.05-6.49,14.2-3.94,4.15-8.9,7.68-14.87,10.6-5.96,2.92-12.6,5.15-19.92,6.71-7.31,1.56-14.53,2.33-21.65,2.33s-14.67-.81-22.08-2.43c-7.41-1.62-14.14-3.99-20.21-7.1-6.06-3.11-11.01-6.87-14.86-11.28-3.85-4.41-5.77-9.4-5.77-14.97V33.84c.39-5.31,2.55-10.05,6.49-14.2,3.95-4.15,8.9-7.68,14.87-10.6,5.97-2.92,12.61-5.15,19.92-6.71,7.32-1.56,14.53-2.33,21.65-2.33ZM456.53,28.98c-2.4-2.85-5.34-5.09-8.8-6.71-3.46-1.62-7.26-2.72-11.4-3.31-4.14-.58-7.94-.88-11.4-.88s-7.26.29-11.4.88c-4.14.58-7.94,1.69-11.4,3.31-3.46,1.62-6.39,3.86-8.8,6.71-2.4,2.85-3.61,6.49-3.61,10.89v78.57c0,4.54,1.2,8.2,3.61,10.99,2.41,2.79,5.34,4.99,8.8,6.61,3.46,1.62,7.27,2.72,11.4,3.31,4.14.58,7.94.88,11.4.88s7.27-.29,11.4-.88c4.14-.58,7.94-1.68,11.4-3.31,3.46-1.62,6.4-3.82,8.8-6.61,2.41-2.79,3.61-6.45,3.61-10.99V39.87c0-4.41-1.2-8.04-3.61-10.89Z"/>
    </g>
  </g>
</svg>