<?xml version="1.0" encoding="UTF-8"?>
<svg id="Capa_2" data-name="Capa 2" xmlns="http://www.w3.org/2000/svg" viewBox="0 0 1268.61 548.29">
  <defs>
    <style>
      .cls-1 {
        fill: #0ca9a9;
      }

      .cls-1, .cls-2 {
        stroke-width: 0px;
      }
    </style>
  </defs>
  <g id="Capa_1-2" data-name="Capa 1">
    <g id="Capa_2-2" data-name="Capa 2">
      <g>
        <path class="cls-1" d="M304.3,130.41L148.22,34.23l10.82-2.79s1.78-1.82-.18-2.78c-.85-.42-14.25,3.88-14.25,3.88L93.19,0l-33.58,6.5-5.35-4.13-4.56.78-4.58,7.95-4.56.78-5.77-5.62-.45,1.13,4.33,5.06L0,20.97l2.22,13.22,7.41-1.02,106.12,143.09-3.48.68c-1.69.33-2.76,2.08-2.38,3.89l3.66,17.54,2.55-.38.2,1.81-1.94.29.76,4.73,6.11-1.79,3.45,14.68s24.84-1.41,66.07-18.64l.66,4.64-34.81,11.72s-14.5,4.35-20.3,8.46c-2.24,1.59-4.5,3.14-6.84,4.56l-43.69,26.37-4.34,1.04,3.07,18.51-14.87,3.98-3.55,2.57,19.69-2.57s4.49,29.52,8.83,32.94l16.35,1.32,4.58,10.54-1.47,2.06-9.17,1.86.42,1.49,11.68-2.53,3.56,9.24s.52.99-.87,1.29c-1.39.31-9.59,2.6-9.59,2.6l.36,1.11,11.4-2.58,16.96,1.71s51.35-10.91,57.25-12.96c5.89-2.05,14.94-12.5,14.94-12.5l41.55-4.02,3.64,2.45-.21-2.97,10.97-1.84s14.92,4.15,46.38-5.42l4.4,20.05,5.53-.93,2.65,14.22,25.75-.34v-204.53l-47.35-.18Z"/>
        <path class="cls-1" d="M1246.32,176.11l-22.43.2s-50.71-29.27-164.95-46.94c0,0-3.87-1.35-7.47-5.7l-14.5-3.2-7.38,3.07s-2.85,1.22-7.42-1.97c0,0-43.75-34.13-85.01-49.8-30.55-11.6-75.69-3.54-133.3,19.92h53.88c9.3.88,17.58,5.81,24.85,14.79,7.26,8.98,13.44,20.27,18.55,33.84,5.11,13.58,9.02,28.7,11.74,45.34,2.21,13.5,3.5,26.85,3.92,40.06,29.6-1.84,155.11-9.72,157.17-11.44l.68,7.82,9.09-.33-.67-7.69s96.69-5.15,141.83-31.2l21.74-2.04,21.98-4.41-22.3-.31Z"/>
      </g>
      <path class="cls-2" d="M601.81,91.69c-4.54,0-8.4,3.07-11.57,9.2-3.18,6.14-4.77,13.58-4.77,22.34v101.19c-6.35-7-13.1-12.26-20.25-15.77-7.15-3.5-14.24-5.26-21.27-5.26h-118.1c-4.08,0-8.51-.99-13.27-2.96-4.77-1.97-9.25-5.47-13.44-10.51-4.2-5.03-7.72-12.04-10.55-21.03-2.84-8.97-4.25-20.47-4.25-34.5v-11.17c0-8.76-1.59-16.2-4.76-22.34-3.18-6.13-7.04-9.2-11.57-9.2s-8.4,3.07-11.57,9.2c-3.18,6.14-4.76,13.58-4.76,22.34v223.42c0,8.77,1.58,16.21,4.76,22.34,3.17,6.14,7.03,9.2,11.57,9.2s8.39-3.06,11.57-9.2c3.17-6.13,4.76-13.57,4.76-22.34v-101.19c6.35,7.01,13.1,12.27,20.25,15.77,7.15,3.51,14.24,5.26,21.27,5.26h118.1c3.86,0,8.17.88,12.93,2.63,4.76,1.76,9.19,5.04,13.27,9.86,4.08,4.83,7.6,11.5,10.55,20.04,2.95,8.54,4.54,19.38,4.76,32.53v15.11c0,8.77,1.58,16.21,4.77,22.34,3.17,6.14,7.03,9.2,11.57,9.2s8.39-3.06,11.57-9.2c3.17-6.13,4.76-13.57,4.76-22.34V123.24c0-8.76-1.59-16.2-4.76-22.34-3.18-6.13-7.04-9.2-11.57-9.2Z"/>
      <path class="cls-2" d="M901.13,140.32c-5.1-13.57-11.29-24.86-18.55-33.84-7.26-8.97-15.54-13.9-24.85-14.79h-142.6c-9.76,0-18.5,4.38-26.21,13.14-7.72,8.77-14.29,20.04-19.74,33.84s-9.59,29.14-12.42,46c-2.84,16.87-4.25,33.62-4.25,50.27v111.71c0,8.77,1.59,16.21,4.77,22.34,3.17,6.14,7.03,9.2,11.57,9.2s8.39-3.06,11.57-9.2c3.18-6.13,4.77-13.57,4.77-22.34v-111.71c0-7.89.51-16.53,1.53-25.96,1.02-9.42,2.95-18.07,5.79-25.96,2.83-7.89,6.69-14.56,11.57-20.04,4.88-5.47,11.28-8.21,19.23-8.21h122.86c7.71,0,14.07,2.74,19.06,8.21,4.99,5.48,8.9,12.16,11.74,20.04,2.83,7.89,4.76,16.54,5.79,25.96,1.02,9.43,1.53,18.07,1.53,25.96v111.71c0,8.77,1.58,16.21,4.76,22.34,3.17,6.14,7.03,9.2,11.57,9.2s8.39-3.06,11.57-9.2c3.17-6.13,4.76-13.57,4.76-22.34v-111.71c0-3.07-.06-6.14-.16-9.23-.42-13.2-1.71-26.55-3.92-40.06-2.72-16.64-6.64-31.76-11.74-45.34Z"/>
    </g>
    <g>
      <path class="cls-2" d="M489.35,488.4c0,2.55-.71,4.72-2.14,6.5-1.42,1.79-3.15,2.68-5.19,2.68s-3.76-.89-5.19-2.68c-1.43-1.78-2.14-3.95-2.14-6.5v-4.4c-.1-3.82-.81-6.98-2.14-9.46-1.32-2.48-2.9-4.43-4.73-5.83-1.83-1.4-3.81-2.36-5.95-2.87-2.14-.51-4.07-.76-5.8-.76h-52.92c-3.15,0-6.33-.51-9.53-1.53-3.2-1.02-6.23-2.55-9.08-4.59v29.44c0,2.55-.71,4.72-2.14,6.5-1.42,1.79-3.15,2.68-5.19,2.68s-3.76-.89-5.19-2.68c-1.43-1.78-2.14-3.95-2.14-6.5v-64.99c0-2.55.71-4.71,2.14-6.5,1.42-1.78,3.15-2.68,5.19-2.68s3.76.89,5.19,2.68c1.42,1.79,2.14,3.95,2.14,6.5v3.25c0,4.08.63,7.42,1.91,10.04,1.27,2.61,2.85,4.65,4.73,6.12,1.88,1.47,3.89,2.49,6.02,3.06s4.12.86,5.95.86h52.92c3.15,0,6.33.51,9.53,1.53,3.2,1.02,6.23,2.55,9.08,4.59v-29.44c0-2.55.71-4.71,2.14-6.5,1.42-1.78,3.15-2.68,5.19-2.68s3.76.89,5.19,2.68c1.42,1.79,2.14,3.95,2.14,6.5v64.99Z"/>
      <path class="cls-2" d="M517.72,494.13c-1.53,2.29-3.41,3.44-5.64,3.44-2.04,0-3.76-.89-5.19-2.68-1.43-1.78-2.14-3.95-2.14-6.5,0-2.29.51-4.14,1.53-5.54l37.06-62.5c1.73-2.93,4.02-5.32,6.86-7.17,2.85-1.85,5.9-2.77,9.15-2.77,3.05,0,5.95.83,8.69,2.48,2.75,1.66,4.98,3.95,6.71,6.88l37.06,62.12c.61.89,1.12,1.88,1.52,2.96.41,1.08.61,2.26.61,3.54,0,2.55-.71,4.72-2.14,6.5-1.43,1.79-3.15,2.68-5.19,2.68-2.44,0-4.37-1.21-5.8-3.63l-35.54-59.45c-.71-1.02-1.6-2.13-2.67-3.34-1.07-1.21-2.16-1.82-3.28-1.82s-2.21.61-3.28,1.82c-1.07,1.21-1.91,2.33-2.52,3.34l-35.84,59.64ZM549.91,476.93c0-3.31.92-6.12,2.75-8.41,1.83-2.29,4.07-3.44,6.71-3.44s4.88,1.15,6.71,3.44c1.83,2.29,2.75,5.1,2.75,8.41s-.92,6.12-2.75,8.41c-1.83,2.29-4.07,3.44-6.71,3.44s-4.88-1.15-6.71-3.44c-1.83-2.29-2.75-5.09-2.75-8.41Z"/>
      <path class="cls-2" d="M627.54,416.91c1.42-1.78,3.15-2.68,5.19-2.68s3.76.89,5.19,2.68c1.42,1.79,2.14,3.95,2.14,6.5v32.49c0,2.29.23,4.81.69,7.55.46,2.74,1.32,5.26,2.59,7.55,1.27,2.29,3,4.24,5.19,5.83,2.19,1.59,5.06,2.39,8.62,2.39h35.38c-1.63-3.57-2.85-7.36-3.66-11.37-.81-4.01-1.22-8-1.22-11.95v-32.49c0-2.55.71-4.71,2.14-6.5,1.42-1.78,3.15-2.68,5.19-2.68s3.76.89,5.19,2.68c1.42,1.79,2.14,3.95,2.14,6.5v32.49c0,2.29.23,4.78.69,7.45s1.27,5.19,2.44,7.55c1.17,2.36,2.8,4.33,4.88,5.92,2.08,1.59,4.75,2.39,8.01,2.39h14.49c3.46,0,6.3-.79,8.54-2.39,2.24-1.59,3.99-3.54,5.26-5.83,1.27-2.29,2.14-4.81,2.59-7.55.46-2.74.69-5.26.69-7.55v-32.49c0-2.55.71-4.71,2.14-6.5,1.42-1.78,3.15-2.68,5.19-2.68s3.76.89,5.19,2.68c1.42,1.79,2.14,3.95,2.14,6.5v32.49c0,4.84-.64,9.72-1.91,14.62-1.27,4.91-3.13,9.37-5.57,13.38-2.44,4.01-5.39,7.3-8.85,9.84-3.46,2.55-7.37,3.82-11.74,3.82h-84.5c-4.17,0-7.88-1.27-11.13-3.82-3.26-2.55-6.02-5.83-8.31-9.84-2.29-4.01-4.04-8.51-5.26-13.48-1.22-4.97-1.83-9.81-1.83-14.53v-32.49c0-2.55.71-4.71,2.14-6.5Z"/>
      <path class="cls-2" d="M794.24,446.73h35.23c5.29,0,10.47-.86,15.56-2.58,5.08-1.72,10.04-3.98,14.87-6.79,4.83-2.8,9.46-5.99,13.88-9.56,4.42-3.57,8.67-7.2,12.73-10.89,1.73-1.78,3.46-2.68,5.19-2.68,2.03,0,3.76.89,5.19,2.68,1.42,1.79,2.13,3.95,2.13,6.5,0,1.79-.41,3.34-1.22,4.68-.81,1.34-1.78,2.52-2.9,3.54-2.64,2.55-5.19,4.94-7.62,7.17-2.44,2.23-4.88,4.3-7.32,6.21-2.44,1.91-4.96,3.76-7.55,5.54-2.59,1.79-5.36,3.57-8.31,5.35,2.95,1.79,5.72,3.57,8.31,5.35,2.59,1.79,5.11,3.63,7.55,5.54,2.44,1.91,4.88,3.98,7.32,6.21,2.44,2.23,4.98,4.62,7.62,7.17,1.12,1.02,2.08,2.2,2.9,3.54.81,1.34,1.22,2.9,1.22,4.68,0,2.55-.71,4.72-2.13,6.5-1.43,1.79-3.15,2.68-5.19,2.68-1.73,0-3.46-.89-5.19-2.68-4.17-3.82-8.46-7.52-12.89-11.09-4.42-3.57-9.03-6.75-13.8-9.56-4.78-2.8-9.71-5.03-14.79-6.69-5.09-1.65-10.27-2.48-15.56-2.48h-35.23v23.32c0,2.55-.71,4.72-2.14,6.5-1.42,1.79-3.1,2.68-5.03,2.68-2.04,0-3.76-.89-5.19-2.68-1.43-1.78-2.14-3.95-2.14-6.5v-64.99c0-2.55.71-4.71,2.14-6.5,1.42-1.78,3.1-2.68,5.03-2.68,2.03,0,3.76.89,5.19,2.68,1.42,1.79,2.14,3.95,2.14,6.5v23.32Z"/>
    </g>
    <g>
      <path class="cls-1" d="M775.57,527.26c-.2-1.17-.56-2.25-1.11-3.23-.54-.98-1.29-1.81-2.25-2.49-.96-.68-2.17-1.02-3.65-1.02h-23.52c-1.52,0-2.75.34-3.68,1.02-.93.68-1.67,1.51-2.22,2.49-.54.98-.91,2.06-1.11,3.23-.2,1.17-.29,2.25-.29,3.23v13.88c0,1.09-.3,2.01-.91,2.78-.61.76-1.35,1.14-2.22,1.14s-1.61-.38-2.22-1.14c-.61-.76-.91-1.69-.91-2.78v-13.88c0-2.07.27-4.15.81-6.25.54-2.1,1.34-4,2.38-5.72,1.04-1.71,2.3-3.12,3.78-4.21,1.48-1.09,3.15-1.63,5.02-1.63h27.3c1.78.11,3.37.72,4.76,1.84,1.39,1.12,2.57,2.52,3.55,4.21.98,1.69,1.73,3.57,2.25,5.63.52,2.07.78,4.11.78,6.12v13.88c0,1.09-.3,2.01-.91,2.78-.61.76-1.35,1.14-2.22,1.14s-1.61-.38-2.22-1.14c-.61-.76-.91-1.69-.91-2.78v-13.88c0-.98-.1-2.05-.29-3.23Z"/>
      <path class="cls-1" d="M802.06,520.52c-1.52,0-2.75.34-3.68,1.02-.93.68-1.67,1.51-2.22,2.49-.54.98-.91,2.06-1.11,3.23-.2,1.17-.29,2.25-.29,3.23s.1,2.06.29,3.23c.2,1.17.56,2.25,1.11,3.23.54.98,1.28,1.81,2.22,2.49.93.68,2.16,1.02,3.68,1.02h35.91c.87,0,1.61.38,2.22,1.14.61.76.91,1.69.91,2.78s-.3,2.01-.91,2.78c-.61.76-1.35,1.14-2.22,1.14h-37.99c-1.78,0-3.37-.54-4.76-1.63-1.39-1.09-2.57-2.49-3.55-4.21-.98-1.71-1.73-3.63-2.25-5.76-.52-2.12-.78-4.19-.78-6.21s.27-4.15.81-6.25c.54-2.1,1.34-4,2.38-5.72,1.04-1.71,2.3-3.12,3.78-4.21,1.48-1.09,3.15-1.63,5.02-1.63h37.34c.87,0,1.61.38,2.22,1.14.61.76.91,1.69.91,2.78s-.3,2.01-.91,2.78c-.61.76-1.35,1.14-2.22,1.14h-35.91ZM837.44,527.71c.61.76.91,1.69.91,2.78s-.3,2.01-.91,2.78c-.61.76-1.35,1.14-2.22,1.14h-32.45c-.87,0-1.61-.38-2.22-1.14-.61-.76-.91-1.69-.91-2.78s.3-2.01.91-2.78c.61-.76,1.35-1.14,2.22-1.14h32.45c.87,0,1.61.38,2.22,1.14Z"/>
      <path class="cls-1" d="M899.02,530.48c0,2.07-.27,4.15-.81,6.25-.54,2.1-1.34,4-2.38,5.72s-2.3,3.12-3.78,4.21c-1.48,1.09-3.15,1.63-5.02,1.63h-29.71c-1.78-.11-3.37-.72-4.76-1.84-1.39-1.12-2.57-2.52-3.55-4.21-.98-1.69-1.73-3.57-2.25-5.63-.52-2.07-.78-4.11-.78-6.12s.27-4.15.81-6.25c.54-2.1,1.34-4,2.38-5.72,1.04-1.71,2.3-3.12,3.78-4.21,1.48-1.09,3.15-1.63,5.02-1.63h29.71c1.78.11,3.37.72,4.76,1.84,1.39,1.12,2.57,2.52,3.55,4.21.98,1.69,1.73,3.57,2.25,5.63.52,2.07.78,4.11.78,6.12ZM889.31,539.43c.96-.68,1.7-1.51,2.25-2.49.54-.98.91-2.05,1.11-3.23.2-1.17.29-2.25.29-3.23s-.1-2.05-.29-3.23c-.2-1.17-.56-2.25-1.11-3.23-.54-.98-1.29-1.81-2.25-2.49-.96-.68-2.17-1.02-3.65-1.02h-26.33c-1.52,0-2.75.34-3.68,1.02-.93.68-1.67,1.51-2.22,2.49-.54.98-.91,2.06-1.11,3.23-.2,1.17-.29,2.25-.29,3.23s.1,2.06.29,3.23c.2,1.17.56,2.25,1.11,3.23.54.98,1.28,1.81,2.22,2.49.93.68,2.16,1.02,3.68,1.02h26.33c1.48,0,2.69-.34,3.65-1.02Z"/>
    </g>
  </g>
</svg>